<mxfile host="Electron" modified="2024-05-01T06:16:25.214Z" agent="Mozilla/5.0 (Windows NT 10.0; Win64; x64) AppleWebKit/537.36 (KHTML, like Gecko) draw.io/24.2.5 Chrome/120.0.6099.109 Electron/28.1.0 Safari/537.36" etag="uk8cacIGYIoxTZb7hlQK" version="24.2.5" type="device">
  <diagram name="Page-1" id="xnV3SyQSmONjZ3Rqiviw">
    <mxGraphModel dx="1400" dy="828" grid="1" gridSize="10" guides="1" tooltips="1" connect="1" arrows="1" fold="1" page="1" pageScale="1" pageWidth="850" pageHeight="1100" math="0" shadow="0">
      <root>
        <mxCell id="0" />
        <mxCell id="1" parent="0" />
        <mxCell id="lnChyeiL-BGFHyh5l16n-3" value="&lt;font style=&quot;font-size: 25px;&quot;&gt;&lt;b&gt;Logo&lt;/b&gt;&lt;/font&gt;" style="text;html=1;align=center;verticalAlign=middle;resizable=0;points=[];autosize=1;strokeColor=none;fillColor=none;" parent="1" vertex="1">
          <mxGeometry x="60" y="50" width="80" height="40" as="geometry" />
        </mxCell>
        <mxCell id="lnChyeiL-BGFHyh5l16n-4" value="&lt;font style=&quot;font-size: 17px;&quot;&gt;&lt;b&gt;Home&lt;/b&gt;&lt;/font&gt;" style="text;strokeColor=none;align=center;fillColor=none;html=1;verticalAlign=middle;whiteSpace=wrap;rounded=0;" parent="1" vertex="1">
          <mxGeometry x="190" y="55" width="60" height="30" as="geometry" />
        </mxCell>
        <mxCell id="lnChyeiL-BGFHyh5l16n-5" value="&lt;font style=&quot;font-size: 17px;&quot;&gt;&lt;b&gt;About us&lt;/b&gt;&lt;/font&gt;" style="text;strokeColor=none;align=center;fillColor=none;html=1;verticalAlign=middle;whiteSpace=wrap;rounded=0;" parent="1" vertex="1">
          <mxGeometry x="270" y="55" width="80" height="30" as="geometry" />
        </mxCell>
        <mxCell id="lnChyeiL-BGFHyh5l16n-6" value="&lt;font style=&quot;font-size: 17px;&quot;&gt;&lt;b&gt;Packages&lt;/b&gt;&lt;/font&gt;" style="text;strokeColor=none;align=center;fillColor=none;html=1;verticalAlign=middle;whiteSpace=wrap;rounded=0;" parent="1" vertex="1">
          <mxGeometry x="390" y="55" width="60" height="30" as="geometry" />
        </mxCell>
        <mxCell id="lnChyeiL-BGFHyh5l16n-7" value="&lt;font style=&quot;font-size: 17px;&quot;&gt;&lt;b&gt;Contact us&lt;/b&gt;&lt;/font&gt;" style="text;strokeColor=none;align=center;fillColor=none;html=1;verticalAlign=middle;whiteSpace=wrap;rounded=0;" parent="1" vertex="1">
          <mxGeometry x="490" y="55" width="90" height="30" as="geometry" />
        </mxCell>
        <mxCell id="lnChyeiL-BGFHyh5l16n-8" value="&lt;font style=&quot;font-size: 16px;&quot;&gt;&lt;b&gt;Description&lt;/b&gt;&lt;/font&gt;" style="text;strokeColor=none;align=center;fillColor=none;html=1;verticalAlign=middle;whiteSpace=wrap;rounded=0;" parent="1" vertex="1">
          <mxGeometry x="70" y="160" width="140" height="30" as="geometry" />
        </mxCell>
        <mxCell id="lnChyeiL-BGFHyh5l16n-9" value="&lt;font style=&quot;font-size: 16px;&quot;&gt;&lt;b&gt;What we do&lt;/b&gt;&lt;/font&gt;" style="text;strokeColor=none;align=center;fillColor=none;html=1;verticalAlign=middle;whiteSpace=wrap;rounded=0;" parent="1" vertex="1">
          <mxGeometry x="70" y="440" width="110" height="30" as="geometry" />
        </mxCell>
        <mxCell id="lnChyeiL-BGFHyh5l16n-11" value="&lt;font style=&quot;font-size: 16px;&quot;&gt;&lt;b&gt;What we believe&lt;/b&gt;&lt;/font&gt;" style="text;strokeColor=none;align=center;fillColor=none;html=1;verticalAlign=middle;whiteSpace=wrap;rounded=0;" parent="1" vertex="1">
          <mxGeometry x="495" y="440" width="140" height="30" as="geometry" />
        </mxCell>
        <mxCell id="lnChyeiL-BGFHyh5l16n-14" value="&lt;font style=&quot;font-size: 16px;&quot;&gt;&lt;b&gt;Who we are&lt;/b&gt;&lt;/font&gt;" style="text;strokeColor=none;align=center;fillColor=none;html=1;verticalAlign=middle;whiteSpace=wrap;rounded=0;" parent="1" vertex="1">
          <mxGeometry x="40" y="620" width="150" height="30" as="geometry" />
        </mxCell>
        <mxCell id="lnChyeiL-BGFHyh5l16n-15" value="&lt;font style=&quot;font-size: 16px;&quot;&gt;&lt;b&gt;Leadership Team&lt;/b&gt;&lt;/font&gt;" style="text;strokeColor=none;align=center;fillColor=none;html=1;verticalAlign=middle;whiteSpace=wrap;rounded=0;" parent="1" vertex="1">
          <mxGeometry x="490" y="600" width="150" height="30" as="geometry" />
        </mxCell>
        <mxCell id="lnChyeiL-BGFHyh5l16n-16" value="" style="rounded=1;whiteSpace=wrap;html=1;fillColor=#e1d5e7;strokeColor=#9673a6;" parent="1" vertex="1">
          <mxGeometry x="380" y="150" width="420" height="240" as="geometry" />
        </mxCell>
        <mxCell id="lnChyeiL-BGFHyh5l16n-19" style="edgeStyle=orthogonalEdgeStyle;rounded=0;orthogonalLoop=1;jettySize=auto;html=1;exitX=0.5;exitY=1;exitDx=0;exitDy=0;" parent="1" edge="1">
          <mxGeometry relative="1" as="geometry">
            <mxPoint x="440" y="820" as="sourcePoint" />
            <mxPoint x="440" y="820" as="targetPoint" />
          </mxGeometry>
        </mxCell>
        <mxCell id="lnChyeiL-BGFHyh5l16n-20" value="&lt;font style=&quot;font-size: 16px;&quot;&gt;&lt;b&gt;Happy Customers&lt;/b&gt;&lt;/font&gt;" style="text;strokeColor=none;align=center;fillColor=none;html=1;verticalAlign=middle;whiteSpace=wrap;rounded=0;" parent="1" vertex="1">
          <mxGeometry x="400" y="170" width="150" height="30" as="geometry" />
        </mxCell>
        <mxCell id="lnChyeiL-BGFHyh5l16n-21" value="&lt;font style=&quot;font-size: 16px;&quot;&gt;&lt;b&gt;Tours Completed&lt;/b&gt;&lt;/font&gt;" style="text;strokeColor=none;align=center;fillColor=none;html=1;verticalAlign=middle;whiteSpace=wrap;rounded=0;" parent="1" vertex="1">
          <mxGeometry x="590" y="170" width="170" height="30" as="geometry" />
        </mxCell>
        <mxCell id="lnChyeiL-BGFHyh5l16n-22" value="&lt;font style=&quot;font-size: 14px;&quot;&gt;74524&lt;/font&gt;" style="text;strokeColor=none;align=center;fillColor=none;html=1;verticalAlign=middle;whiteSpace=wrap;rounded=0;" parent="1" vertex="1">
          <mxGeometry x="435" y="210" width="60" height="30" as="geometry" />
        </mxCell>
        <mxCell id="lnChyeiL-BGFHyh5l16n-23" value="&lt;font style=&quot;font-size: 14px;&quot;&gt;85544&lt;/font&gt;" style="text;strokeColor=none;align=center;fillColor=none;html=1;verticalAlign=middle;whiteSpace=wrap;rounded=0;" parent="1" vertex="1">
          <mxGeometry x="645" y="210" width="60" height="30" as="geometry" />
        </mxCell>
        <mxCell id="lnChyeiL-BGFHyh5l16n-24" value="" style="whiteSpace=wrap;html=1;aspect=fixed;fillColor=#dae8fc;strokeColor=#6c8ebf;" parent="1" vertex="1">
          <mxGeometry x="370" y="670" width="80" height="80" as="geometry" />
        </mxCell>
        <mxCell id="lnChyeiL-BGFHyh5l16n-25" value="" style="whiteSpace=wrap;html=1;aspect=fixed;fillColor=#dae8fc;strokeColor=#6c8ebf;" parent="1" vertex="1">
          <mxGeometry x="490" y="670" width="80" height="80" as="geometry" />
        </mxCell>
        <mxCell id="lnChyeiL-BGFHyh5l16n-26" value="" style="whiteSpace=wrap;html=1;aspect=fixed;fillColor=#dae8fc;strokeColor=#6c8ebf;" parent="1" vertex="1">
          <mxGeometry x="610" y="670" width="80" height="80" as="geometry" />
        </mxCell>
        <mxCell id="lnChyeiL-BGFHyh5l16n-27" value="" style="whiteSpace=wrap;html=1;aspect=fixed;fillColor=#dae8fc;strokeColor=#6c8ebf;" parent="1" vertex="1">
          <mxGeometry x="720" y="670" width="80" height="80" as="geometry" />
        </mxCell>
        <mxCell id="lnChyeiL-BGFHyh5l16n-29" value="&lt;font style=&quot;font-size: 14px;&quot;&gt;Image&lt;/font&gt;" style="text;strokeColor=none;align=center;fillColor=none;html=1;verticalAlign=middle;whiteSpace=wrap;rounded=0;" parent="1" vertex="1">
          <mxGeometry x="380" y="695" width="60" height="30" as="geometry" />
        </mxCell>
        <mxCell id="lnChyeiL-BGFHyh5l16n-31" value="&lt;font style=&quot;font-size: 14px;&quot;&gt;Image&lt;/font&gt;" style="text;strokeColor=none;align=center;fillColor=none;html=1;verticalAlign=middle;whiteSpace=wrap;rounded=0;" parent="1" vertex="1">
          <mxGeometry x="500" y="695" width="60" height="30" as="geometry" />
        </mxCell>
        <mxCell id="lnChyeiL-BGFHyh5l16n-33" value="&lt;font style=&quot;font-size: 14px;&quot;&gt;Image&lt;/font&gt;" style="text;strokeColor=none;align=center;fillColor=none;html=1;verticalAlign=middle;whiteSpace=wrap;rounded=0;" parent="1" vertex="1">
          <mxGeometry x="620" y="695" width="60" height="30" as="geometry" />
        </mxCell>
        <mxCell id="lnChyeiL-BGFHyh5l16n-35" value="&lt;font style=&quot;font-size: 14px;&quot;&gt;Image&lt;/font&gt;" style="text;strokeColor=none;align=center;fillColor=none;html=1;verticalAlign=middle;whiteSpace=wrap;rounded=0;" parent="1" vertex="1">
          <mxGeometry x="730" y="695" width="60" height="30" as="geometry" />
        </mxCell>
        <mxCell id="lnChyeiL-BGFHyh5l16n-36" value="&lt;div style=&quot;text-align: justify;&quot;&gt;&lt;span style=&quot;background-color: rgb(255, 255, 255); color: rgb(13, 13, 13); font-family: SÃ¶hne, ui-sans-serif, system-ui, -apple-system, &amp;quot;Segoe UI&amp;quot;, Roboto, Ubuntu, Cantarell, &amp;quot;Noto Sans&amp;quot;, sans-serif, &amp;quot;Helvetica Neue&amp;quot;, Arial, &amp;quot;Apple Color Emoji&amp;quot;, &amp;quot;Segoe UI Emoji&amp;quot;, &amp;quot;Segoe UI Symbol&amp;quot;, &amp;quot;Noto Color Emoji&amp;quot;; font-size: 16px; white-space-collapse: preserve;&quot;&gt;At [Your Tourism Website], we believe that travel is more than just visiting new places; it&#39;s about immersing yourself in the essence of a destination, connecting with its people, and creating memories that will last a lifetime.&lt;/span&gt;&lt;/div&gt;" style="text;strokeColor=none;align=center;fillColor=none;html=1;verticalAlign=middle;whiteSpace=wrap;rounded=0;" parent="1" vertex="1">
          <mxGeometry x="70" y="190" width="270" height="190" as="geometry" />
        </mxCell>
        <mxCell id="lnChyeiL-BGFHyh5l16n-41" value="&lt;span style=&quot;font-size: 16px;&quot;&gt;--------------------------------------------------------------------------------------&lt;/span&gt;" style="text;strokeColor=none;align=center;fillColor=none;html=1;verticalAlign=middle;whiteSpace=wrap;rounded=0;" parent="1" vertex="1">
          <mxGeometry x="70" y="480" width="110" height="100" as="geometry" />
        </mxCell>
        <mxCell id="lnChyeiL-BGFHyh5l16n-45" value="&lt;span style=&quot;font-size: 16px;&quot;&gt;--------------------------------------------------------------------------------------&lt;/span&gt;" style="text;strokeColor=none;align=center;fillColor=none;html=1;verticalAlign=middle;whiteSpace=wrap;rounded=0;" parent="1" vertex="1">
          <mxGeometry x="510" y="470" width="110" height="100" as="geometry" />
        </mxCell>
        <mxCell id="lnChyeiL-BGFHyh5l16n-46" value="&lt;span style=&quot;font-size: 16px;&quot;&gt;--------------------------------------------------------------------------------------&lt;/span&gt;" style="text;strokeColor=none;align=center;fillColor=none;html=1;verticalAlign=middle;whiteSpace=wrap;rounded=0;" parent="1" vertex="1">
          <mxGeometry x="60" y="660" width="110" height="100" as="geometry" />
        </mxCell>
        <mxCell id="lnChyeiL-BGFHyh5l16n-47" value="&lt;font style=&quot;font-size: 16px;&quot;&gt;&lt;b&gt;Travel Partner&lt;/b&gt;&lt;/font&gt;" style="text;strokeColor=none;align=center;fillColor=none;html=1;verticalAlign=middle;whiteSpace=wrap;rounded=0;" parent="1" vertex="1">
          <mxGeometry x="410" y="270" width="110" height="30" as="geometry" />
        </mxCell>
        <mxCell id="IiaHUtu5lNTf1XjvNLvz-4" value="" style="rounded=0;whiteSpace=wrap;html=1;" vertex="1" parent="1">
          <mxGeometry x="40" y="30" width="790" height="920" as="geometry" />
        </mxCell>
        <mxCell id="IiaHUtu5lNTf1XjvNLvz-5" value="" style="endArrow=none;html=1;rounded=0;" edge="1" parent="1">
          <mxGeometry width="50" height="50" relative="1" as="geometry">
            <mxPoint x="40" y="130" as="sourcePoint" />
            <mxPoint x="830" y="130" as="targetPoint" />
          </mxGeometry>
        </mxCell>
        <mxCell id="IiaHUtu5lNTf1XjvNLvz-6" value="&lt;font style=&quot;font-size: 25px;&quot;&gt;&lt;b&gt;Logo&lt;/b&gt;&lt;/font&gt;" style="text;html=1;align=center;verticalAlign=middle;resizable=0;points=[];autosize=1;strokeColor=none;fillColor=none;" vertex="1" parent="1">
          <mxGeometry x="70" y="60" width="80" height="40" as="geometry" />
        </mxCell>
        <mxCell id="IiaHUtu5lNTf1XjvNLvz-7" value="&lt;font style=&quot;font-size: 17px;&quot;&gt;&lt;b&gt;Home&lt;/b&gt;&lt;/font&gt;" style="text;strokeColor=none;align=center;fillColor=none;html=1;verticalAlign=middle;whiteSpace=wrap;rounded=0;" vertex="1" parent="1">
          <mxGeometry x="200" y="65" width="60" height="30" as="geometry" />
        </mxCell>
        <mxCell id="IiaHUtu5lNTf1XjvNLvz-8" value="&lt;font style=&quot;font-size: 17px;&quot;&gt;&lt;b&gt;About us&lt;/b&gt;&lt;/font&gt;" style="text;strokeColor=none;align=center;fillColor=none;html=1;verticalAlign=middle;whiteSpace=wrap;rounded=0;" vertex="1" parent="1">
          <mxGeometry x="280" y="65" width="80" height="30" as="geometry" />
        </mxCell>
        <mxCell id="IiaHUtu5lNTf1XjvNLvz-9" value="&lt;font style=&quot;font-size: 17px;&quot;&gt;&lt;b&gt;Packages&lt;/b&gt;&lt;/font&gt;" style="text;strokeColor=none;align=center;fillColor=none;html=1;verticalAlign=middle;whiteSpace=wrap;rounded=0;" vertex="1" parent="1">
          <mxGeometry x="400" y="65" width="60" height="30" as="geometry" />
        </mxCell>
        <mxCell id="IiaHUtu5lNTf1XjvNLvz-10" value="&lt;font style=&quot;font-size: 17px;&quot;&gt;&lt;b&gt;Contact us&lt;/b&gt;&lt;/font&gt;" style="text;strokeColor=none;align=center;fillColor=none;html=1;verticalAlign=middle;whiteSpace=wrap;rounded=0;" vertex="1" parent="1">
          <mxGeometry x="500" y="65" width="90" height="30" as="geometry" />
        </mxCell>
        <mxCell id="IiaHUtu5lNTf1XjvNLvz-11" value="&lt;font style=&quot;font-size: 16px;&quot;&gt;&lt;b&gt;Description&lt;/b&gt;&lt;/font&gt;" style="text;strokeColor=none;align=center;fillColor=none;html=1;verticalAlign=middle;whiteSpace=wrap;rounded=0;" vertex="1" parent="1">
          <mxGeometry x="80" y="170" width="140" height="30" as="geometry" />
        </mxCell>
        <mxCell id="IiaHUtu5lNTf1XjvNLvz-12" value="&lt;font style=&quot;font-size: 16px;&quot;&gt;&lt;b&gt;What we do&lt;/b&gt;&lt;/font&gt;" style="text;strokeColor=none;align=center;fillColor=none;html=1;verticalAlign=middle;whiteSpace=wrap;rounded=0;" vertex="1" parent="1">
          <mxGeometry x="80" y="450" width="110" height="30" as="geometry" />
        </mxCell>
        <mxCell id="IiaHUtu5lNTf1XjvNLvz-13" value="&lt;font style=&quot;font-size: 16px;&quot;&gt;&lt;b&gt;What we believe&lt;/b&gt;&lt;/font&gt;" style="text;strokeColor=none;align=center;fillColor=none;html=1;verticalAlign=middle;whiteSpace=wrap;rounded=0;" vertex="1" parent="1">
          <mxGeometry x="505" y="450" width="140" height="30" as="geometry" />
        </mxCell>
        <mxCell id="IiaHUtu5lNTf1XjvNLvz-14" value="&lt;font style=&quot;font-size: 16px;&quot;&gt;&lt;b&gt;Who we are&lt;/b&gt;&lt;/font&gt;" style="text;strokeColor=none;align=center;fillColor=none;html=1;verticalAlign=middle;whiteSpace=wrap;rounded=0;" vertex="1" parent="1">
          <mxGeometry x="50" y="630" width="150" height="30" as="geometry" />
        </mxCell>
        <mxCell id="IiaHUtu5lNTf1XjvNLvz-15" value="&lt;font style=&quot;font-size: 16px;&quot;&gt;&lt;b&gt;Leadership Team&lt;/b&gt;&lt;/font&gt;" style="text;strokeColor=none;align=center;fillColor=none;html=1;verticalAlign=middle;whiteSpace=wrap;rounded=0;" vertex="1" parent="1">
          <mxGeometry x="500" y="610" width="150" height="30" as="geometry" />
        </mxCell>
        <mxCell id="IiaHUtu5lNTf1XjvNLvz-16" value="" style="rounded=1;whiteSpace=wrap;html=1;fillColor=#e1d5e7;strokeColor=#9673a6;" vertex="1" parent="1">
          <mxGeometry x="390" y="160" width="420" height="240" as="geometry" />
        </mxCell>
        <mxCell id="IiaHUtu5lNTf1XjvNLvz-17" value="&lt;font style=&quot;font-size: 16px;&quot;&gt;&lt;b&gt;Happy Customers&lt;/b&gt;&lt;/font&gt;" style="text;strokeColor=none;align=center;fillColor=none;html=1;verticalAlign=middle;whiteSpace=wrap;rounded=0;" vertex="1" parent="1">
          <mxGeometry x="410" y="180" width="150" height="30" as="geometry" />
        </mxCell>
        <mxCell id="IiaHUtu5lNTf1XjvNLvz-18" value="&lt;font style=&quot;font-size: 16px;&quot;&gt;&lt;b&gt;Tours Completed&lt;/b&gt;&lt;/font&gt;" style="text;strokeColor=none;align=center;fillColor=none;html=1;verticalAlign=middle;whiteSpace=wrap;rounded=0;" vertex="1" parent="1">
          <mxGeometry x="600" y="180" width="170" height="30" as="geometry" />
        </mxCell>
        <mxCell id="IiaHUtu5lNTf1XjvNLvz-19" value="&lt;font style=&quot;font-size: 14px;&quot;&gt;74524&lt;/font&gt;" style="text;strokeColor=none;align=center;fillColor=none;html=1;verticalAlign=middle;whiteSpace=wrap;rounded=0;" vertex="1" parent="1">
          <mxGeometry x="445" y="220" width="60" height="30" as="geometry" />
        </mxCell>
        <mxCell id="IiaHUtu5lNTf1XjvNLvz-20" value="&lt;font style=&quot;font-size: 14px;&quot;&gt;85544&lt;/font&gt;" style="text;strokeColor=none;align=center;fillColor=none;html=1;verticalAlign=middle;whiteSpace=wrap;rounded=0;" vertex="1" parent="1">
          <mxGeometry x="655" y="220" width="60" height="30" as="geometry" />
        </mxCell>
        <mxCell id="IiaHUtu5lNTf1XjvNLvz-21" value="" style="whiteSpace=wrap;html=1;aspect=fixed;fillColor=#dae8fc;strokeColor=#6c8ebf;" vertex="1" parent="1">
          <mxGeometry x="380" y="680" width="80" height="80" as="geometry" />
        </mxCell>
        <mxCell id="IiaHUtu5lNTf1XjvNLvz-22" value="" style="whiteSpace=wrap;html=1;aspect=fixed;fillColor=#dae8fc;strokeColor=#6c8ebf;" vertex="1" parent="1">
          <mxGeometry x="500" y="680" width="80" height="80" as="geometry" />
        </mxCell>
        <mxCell id="IiaHUtu5lNTf1XjvNLvz-23" value="" style="whiteSpace=wrap;html=1;aspect=fixed;fillColor=#dae8fc;strokeColor=#6c8ebf;" vertex="1" parent="1">
          <mxGeometry x="620" y="680" width="80" height="80" as="geometry" />
        </mxCell>
        <mxCell id="IiaHUtu5lNTf1XjvNLvz-24" value="" style="whiteSpace=wrap;html=1;aspect=fixed;fillColor=#dae8fc;strokeColor=#6c8ebf;" vertex="1" parent="1">
          <mxGeometry x="730" y="680" width="80" height="80" as="geometry" />
        </mxCell>
        <mxCell id="IiaHUtu5lNTf1XjvNLvz-25" value="&lt;font style=&quot;font-size: 14px;&quot;&gt;Image&lt;/font&gt;" style="text;strokeColor=none;align=center;fillColor=none;html=1;verticalAlign=middle;whiteSpace=wrap;rounded=0;" vertex="1" parent="1">
          <mxGeometry x="390" y="705" width="60" height="30" as="geometry" />
        </mxCell>
        <mxCell id="IiaHUtu5lNTf1XjvNLvz-26" value="&lt;font style=&quot;font-size: 14px;&quot;&gt;Image&lt;/font&gt;" style="text;strokeColor=none;align=center;fillColor=none;html=1;verticalAlign=middle;whiteSpace=wrap;rounded=0;" vertex="1" parent="1">
          <mxGeometry x="510" y="705" width="60" height="30" as="geometry" />
        </mxCell>
        <mxCell id="IiaHUtu5lNTf1XjvNLvz-27" value="&lt;font style=&quot;font-size: 14px;&quot;&gt;Image&lt;/font&gt;" style="text;strokeColor=none;align=center;fillColor=none;html=1;verticalAlign=middle;whiteSpace=wrap;rounded=0;" vertex="1" parent="1">
          <mxGeometry x="630" y="705" width="60" height="30" as="geometry" />
        </mxCell>
        <mxCell id="IiaHUtu5lNTf1XjvNLvz-28" value="&lt;font style=&quot;font-size: 14px;&quot;&gt;Image&lt;/font&gt;" style="text;strokeColor=none;align=center;fillColor=none;html=1;verticalAlign=middle;whiteSpace=wrap;rounded=0;" vertex="1" parent="1">
          <mxGeometry x="740" y="705" width="60" height="30" as="geometry" />
        </mxCell>
        <mxCell id="IiaHUtu5lNTf1XjvNLvz-29" value="&lt;div style=&quot;text-align: justify;&quot;&gt;&lt;span style=&quot;background-color: rgb(255, 255, 255); color: rgb(13, 13, 13); font-family: SÃ¶hne, ui-sans-serif, system-ui, -apple-system, &amp;quot;Segoe UI&amp;quot;, Roboto, Ubuntu, Cantarell, &amp;quot;Noto Sans&amp;quot;, sans-serif, &amp;quot;Helvetica Neue&amp;quot;, Arial, &amp;quot;Apple Color Emoji&amp;quot;, &amp;quot;Segoe UI Emoji&amp;quot;, &amp;quot;Segoe UI Symbol&amp;quot;, &amp;quot;Noto Color Emoji&amp;quot;; font-size: 16px; white-space-collapse: preserve;&quot;&gt;At [Your Tourism Website], we believe that travel is more than just visiting new places; it&#39;s about immersing yourself in the essence of a destination, connecting with its people, and creating memories that will last a lifetime.&lt;/span&gt;&lt;/div&gt;" style="text;strokeColor=none;align=center;fillColor=none;html=1;verticalAlign=middle;whiteSpace=wrap;rounded=0;" vertex="1" parent="1">
          <mxGeometry x="80" y="200" width="270" height="190" as="geometry" />
        </mxCell>
        <mxCell id="IiaHUtu5lNTf1XjvNLvz-30" value="&lt;span style=&quot;font-size: 16px;&quot;&gt;--------------------------------------------------------------------------------------&lt;/span&gt;" style="text;strokeColor=none;align=center;fillColor=none;html=1;verticalAlign=middle;whiteSpace=wrap;rounded=0;" vertex="1" parent="1">
          <mxGeometry x="80" y="490" width="110" height="100" as="geometry" />
        </mxCell>
        <mxCell id="IiaHUtu5lNTf1XjvNLvz-31" value="&lt;span style=&quot;font-size: 16px;&quot;&gt;--------------------------------------------------------------------------------------&lt;/span&gt;" style="text;strokeColor=none;align=center;fillColor=none;html=1;verticalAlign=middle;whiteSpace=wrap;rounded=0;" vertex="1" parent="1">
          <mxGeometry x="520" y="480" width="110" height="100" as="geometry" />
        </mxCell>
        <mxCell id="IiaHUtu5lNTf1XjvNLvz-32" value="&lt;span style=&quot;font-size: 16px;&quot;&gt;--------------------------------------------------------------------------------------&lt;/span&gt;" style="text;strokeColor=none;align=center;fillColor=none;html=1;verticalAlign=middle;whiteSpace=wrap;rounded=0;" vertex="1" parent="1">
          <mxGeometry x="70" y="670" width="110" height="100" as="geometry" />
        </mxCell>
        <mxCell id="IiaHUtu5lNTf1XjvNLvz-33" value="&lt;font style=&quot;font-size: 16px;&quot;&gt;&lt;b&gt;Travel Partner&lt;/b&gt;&lt;/font&gt;" style="text;strokeColor=none;align=center;fillColor=none;html=1;verticalAlign=middle;whiteSpace=wrap;rounded=0;" vertex="1" parent="1">
          <mxGeometry x="420" y="280" width="110" height="30" as="geometry" />
        </mxCell>
        <mxCell id="IiaHUtu5lNTf1XjvNLvz-37" value="" style="endArrow=none;html=1;rounded=0;" edge="1" parent="1">
          <mxGeometry width="50" height="50" relative="1" as="geometry">
            <mxPoint x="40" y="818" as="sourcePoint" />
            <mxPoint x="830" y="820" as="targetPoint" />
          </mxGeometry>
        </mxCell>
        <mxCell id="IiaHUtu5lNTf1XjvNLvz-38" value="&lt;font style=&quot;font-size: 16px;&quot;&gt;&lt;b&gt;Footer&lt;/b&gt;&lt;/font&gt;" style="text;strokeColor=none;align=center;fillColor=none;html=1;verticalAlign=middle;whiteSpace=wrap;rounded=0;" vertex="1" parent="1">
          <mxGeometry x="345" y="860" width="150" height="30" as="geometry" />
        </mxCell>
      </root>
    </mxGraphModel>
  </diagram>
</mxfile>
